<svg width="128" height="128" viewBox="0 0 128 128" fill="none" xmlns="http://www.w3.org/2000/svg">
<path d="M20.1581 65.79C20.1581 68.69 20.8598 70.9463 22.264 72.5572C23.6883 74.1686 25.4478 74.9746 27.5437 74.9746C29.0696 74.9746 31.0936 74.2891 33.617 72.9197L34.4405 74.1586C33.5049 74.8437 32.7723 75.3367 32.2438 75.6391C31.7346 75.9411 31.1546 76.253 30.504 76.5756C29.1814 77.2003 27.7675 77.5122 26.262 77.5122C23.6168 77.5122 21.3586 76.5354 19.4866 74.5816C17.6351 72.6277 16.7095 70.0097 16.7095 66.7262C16.7095 63.4435 17.7878 60.7742 19.9443 58.7201C22.1013 56.6456 24.7766 55.6084 27.9709 55.6084C30.1073 55.6084 32.1115 56.0914 33.9827 57.0582C33.7388 58.3274 33.312 59.3948 32.7015 60.2606C30.6057 58.5892 28.337 57.7533 25.8955 57.7533C25.1633 57.7533 24.4511 57.8237 23.7591 57.9645C22.7218 58.73 21.8569 59.7676 21.1653 61.0766C20.4937 62.3859 20.1581 63.9567 20.1581 65.79ZM51.8122 66.9681L46.9903 66.9379C44.9765 66.9379 43.3789 66.9478 42.199 66.9681V70.8051C42.199 71.5503 42.2396 72.6384 42.3212 74.0683C42.4224 75.4978 42.535 76.4447 42.6567 76.9079V77.1195H38.5977V76.9079C38.9031 75.7397 39.0554 73.6959 39.0554 70.7748V62.3155C39.0554 59.3948 38.9031 57.3506 38.5977 56.1821V55.9708H42.6567V56.1821C42.535 56.6456 42.4224 57.6021 42.3212 59.0523C42.2396 60.4822 42.199 61.5699 42.199 62.3155V65.0647H51.8122V62.3155C51.8122 61.5699 51.7616 60.4822 51.6595 59.0523C51.5779 57.6021 51.4766 56.6456 51.3545 56.1821V55.9708H55.4135V56.1821C55.1085 57.3506 54.9558 59.3948 54.9558 62.3155V70.7748C54.9558 73.6959 55.1085 75.7397 55.4135 76.9079V77.1195H51.3545V76.9079C51.4766 76.4447 51.5779 75.4978 51.6595 74.0683C51.7616 72.6384 51.8122 71.5503 51.8122 70.8051V66.9681ZM65.5942 62.6175V70.7748C65.5942 71.5204 65.6352 72.6177 65.7164 74.0683C65.8181 75.4978 65.9302 76.4447 66.052 76.9079V77.1195H61.9933V76.9079C62.2983 75.7397 62.451 73.5945 62.451 70.4729V62.3155C62.451 59.3948 62.2983 57.3506 61.9933 56.1821V55.9708H66.052V56.1821C65.9302 56.6456 65.8181 57.6423 65.7164 59.1732C65.6352 60.7042 65.5942 61.8524 65.5942 62.6175ZM74.6167 77.1195H71.5342V76.9079C71.8392 75.579 71.9919 73.2424 71.9919 69.8987V63.1311C71.9919 60.029 71.8597 57.7131 71.5953 56.1821V55.9708L75.2878 55.6987L85.9697 72.1343V62.3155C85.9697 61.2481 85.9086 60.0895 85.7864 58.841C85.6646 57.5718 85.5119 56.6858 85.3286 56.1821V55.9708H88.5329V56.1821C88.2279 57.5114 88.0752 59.848 88.0752 63.1912V70.7748C88.0752 71.9835 88.1162 73.2825 88.1973 74.6727C88.2994 76.0421 88.3907 76.8573 88.4718 77.1195L85.6031 77.4215L74.0669 59.7473V70.7748C74.0669 73.4536 74.2505 75.4978 74.6167 76.9079V77.1195ZM109.661 68.8715C109.661 71.6509 109.733 73.6152 109.875 74.763C106.966 76.5756 104.148 77.482 101.421 77.482C98.6955 77.482 96.4469 76.5251 94.677 74.6118C92.9272 72.6782 92.0523 70.1303 92.0523 66.9681C92.0523 63.7856 93.0188 61.0973 94.9519 58.9011C96.9047 56.7057 99.4888 55.6084 102.703 55.6084C105.287 55.6084 107.749 56.4741 110.089 58.2064C109.336 58.9922 108.37 59.7473 107.189 60.4722C105.806 58.6596 103.782 57.7533 101.116 57.7533C99.9976 57.7533 99.1127 57.8539 98.4612 58.0552C96.4879 59.7072 95.5009 62.3657 95.5009 66.0315C95.5009 72.1745 97.9118 75.2464 102.734 75.2464C104.463 75.2464 105.745 74.9846 106.579 74.461C106.823 73.2121 106.946 71.419 106.946 69.0827H102.947L104.229 67.0891C105.837 67.21 107.23 67.2701 108.41 67.2701C109.591 67.2701 110.597 67.2498 111.432 67.21L110.577 68.8715H109.661Z" fill="#080808"/>
<path d="M108.524 83.5684H18.5943C17.8585 83.5684 17.2616 84.7208 17.2616 86.1437C17.2616 87.5659 17.8585 88.7184 18.5943 88.7184H108.524C109.26 88.7184 109.857 87.5659 109.857 86.1437C109.857 84.7208 109.26 83.5684 108.524 83.5684Z" fill="#E90909"/>
<path d="M16.9301 103.828C16.9301 106.548 17.5965 108.665 18.9282 110.175C20.2794 111.686 21.9486 112.442 23.9364 112.442C25.3841 112.442 27.3049 111.8 29.698 110.515L30.48 111.677C29.592 112.32 28.897 112.782 28.3953 113.066C27.9126 113.349 27.3628 113.642 26.7452 113.944C25.4908 114.53 24.1488 114.823 22.7206 114.823C20.2116 114.823 18.0689 113.907 16.2937 112.074C14.5369 110.242 13.6589 107.786 13.6589 104.707C13.6589 101.627 14.6814 99.1243 16.728 97.1978C18.7738 95.2518 21.3115 94.279 24.3421 94.279C26.3689 94.279 28.2698 94.7324 30.0457 95.6391C29.8143 96.8291 29.4086 97.8306 28.8295 98.6426C26.8413 97.075 24.6894 96.291 22.3733 96.291C21.6786 96.291 21.0031 96.3571 20.3469 96.4892C19.3625 97.2071 18.5424 98.1803 17.8859 99.4079C17.2488 100.636 16.9301 102.109 16.9301 103.828ZM46.9595 104.933L42.3848 104.905C40.4743 104.905 38.9588 104.914 37.8398 104.933V108.532C37.8398 109.231 37.8779 110.251 37.9553 111.592C38.0521 112.933 38.1581 113.822 38.274 114.256V114.454H34.4233V114.256C34.7127 113.16 34.8576 111.243 34.8576 108.503V100.57C34.8576 97.8306 34.7127 95.9134 34.4233 94.8175V94.6189H38.274V94.8175C38.1581 95.2518 38.0521 96.1492 37.9553 97.5093C37.8779 98.8504 37.8398 99.8702 37.8398 100.57V103.148H46.9595V100.57C46.9595 99.8702 46.9111 98.8504 46.815 97.5093C46.7376 96.1492 46.6407 95.2518 46.5252 94.8175V94.6189H50.3759V94.8175C50.0862 95.9134 49.9417 97.8306 49.9417 100.57V108.503C49.9417 111.243 50.0862 113.16 50.3759 114.256V114.454H46.5252V114.256C46.6407 113.822 46.7376 112.933 46.815 111.592C46.9111 110.251 46.9595 109.231 46.9595 108.532V104.933ZM64.0295 114.794C61.2498 114.794 59.0305 113.84 57.3705 111.932C55.7296 110.024 54.9098 107.616 54.9098 104.707C54.9098 101.779 55.8458 99.3034 57.7182 97.2828C59.5906 95.2425 62.0028 94.2227 64.956 94.2227C66.8665 94.2227 68.5074 94.685 69.8777 95.6108C72.5415 97.4052 73.8729 100.211 73.8729 104.026C73.8729 107.143 72.9273 109.722 71.0359 111.762C69.1636 113.783 66.8284 114.794 64.0295 114.794ZM70.6017 104.792C70.6017 102.374 70.1381 100.4 69.212 98.8695C68.1887 97.1504 66.4711 96.291 64.0581 96.291C62.3596 96.291 61.0279 96.5836 60.0629 97.169C59.5032 97.8493 59.0495 98.8131 58.7022 100.059C58.3549 101.287 58.181 102.676 58.181 104.225C58.181 105.755 58.3839 107.143 58.7891 108.39C59.1944 109.618 59.9184 110.657 60.9604 111.507C62.0222 112.357 63.3151 112.782 64.8401 112.782C66.3838 112.782 67.658 112.471 68.6618 111.848C69.9551 110.431 70.6017 108.078 70.6017 104.792ZM80.2982 114.454H77.3743V114.256C77.6637 113.009 77.8086 110.818 77.8086 107.682V101.334C77.8086 98.4254 77.6831 96.253 77.4319 94.8175V94.6189L80.9353 94.3641L91.0684 109.779V100.57C91.0684 99.5684 91.0104 98.4821 90.8949 97.3108C90.779 96.1209 90.6341 95.2899 90.4606 94.8175V94.6189H93.5004V94.8175C93.211 96.0641 93.0662 98.2556 93.0662 101.391V108.503C93.0662 109.637 93.1047 110.856 93.1817 112.159C93.2789 113.443 93.3654 114.208 93.4425 114.454L90.7206 114.738L79.777 98.1609V108.503C79.777 111.016 79.9509 112.933 80.2982 114.256V114.454ZM113.544 106.718C113.544 109.325 113.611 111.167 113.747 112.244C110.987 113.944 108.313 114.794 105.727 114.794C103.141 114.794 101.008 113.897 99.3287 112.102C97.6687 110.289 96.8391 107.899 96.8391 104.933C96.8391 101.949 97.7556 99.427 99.5895 97.3675C101.442 95.3085 103.893 94.279 106.943 94.279C109.394 94.279 111.729 95.0913 113.95 96.716C113.235 97.4526 112.319 98.1609 111.199 98.8411C109.886 97.1411 107.966 96.291 105.438 96.291C104.376 96.291 103.536 96.385 102.919 96.5742C101.046 98.1235 100.11 100.617 100.11 104.055C100.11 109.817 102.398 112.698 106.972 112.698C108.613 112.698 109.829 112.452 110.62 111.961C110.852 110.79 110.967 109.108 110.967 106.917H107.175L108.391 105.047C109.916 105.16 111.237 105.217 112.357 105.217C113.477 105.217 114.432 105.198 115.223 105.16L114.413 106.718H113.544Z" fill="#080808"/>
<path d="M64.6707 12.4033V15.9589C44.4399 31.3847 35.6566 35.4364 20.8372 36.2449C16.8079 36.4647 16.9877 36.4562 12.3524 36.0002C22.8524 45.0002 37.9821 43.885 48.0597 44.385L64.6707 44.3023V48.0002H47.93C13.5791 47.178 10.6335 41.1142 5.68707 33.8285C4.5757 32.1916 5.91735 30.1847 8.48925 31.2377C11.025 32.2759 15.7933 32.7077 19.8909 32.5607C39.3684 31.1182 45.037 25.1188 63.4304 12.4033H64.6707Z" fill="#E90909"/>
<path d="M64.6339 12.4033V15.9589C84.8648 31.3847 93.648 35.4363 108.467 36.2448C112.497 36.4647 112.317 36.4561 116.952 36.0002C106.452 45.0002 91.3225 43.8849 81.2449 44.3849L64.6339 44.3023V48.0002H81.3746C115.726 47.1779 118.671 41.1142 123.618 33.8285C124.729 32.1916 123.387 30.1847 120.815 31.2377C118.28 32.2758 113.511 32.7077 109.414 32.5607C89.9363 31.1182 84.2676 25.1188 65.8743 12.4033H64.6339Z" fill="#E90909"/>
<path d="M64.4802 15.3805C62.1343 15.3805 60.2331 13.4842 60.2331 11.1452C60.2331 8.80545 62.1343 6.90918 64.4802 6.90918C64.4841 6.90918 64.4877 6.90918 64.4913 6.90918V6.91505C64.4952 6.91505 64.4991 6.91505 64.5027 6.91505C66.8483 6.91505 68.7501 8.81131 68.7501 11.151C68.7501 13.4904 66.8483 15.3863 64.5027 15.3863C64.4991 15.3863 64.4952 15.3863 64.4913 15.3863V15.3805C64.4877 15.3805 64.4841 15.3805 64.4802 15.3805Z" fill="#E90909"/>
</svg>
