<svg width="50" height="50" viewBox="0 0 50 50" fill="none" xmlns="http://www.w3.org/2000/svg">
<path d="M24.5 13V33.5M24.5 33.5L19.5 24H29.5L24.5 33.5Z" stroke="#FBFBFB" stroke-width="5"/>
<path d="M50 25C50 38.8071 38.8071 50 25 50C11.1929 50 0 38.8071 0 25C0 11.1929 11.1929 0 25 0C38.8071 0 50 11.1929 50 25ZM5.45601 25C5.45601 35.7938 14.2062 44.544 25 44.544C35.7938 44.544 44.544 35.7938 44.544 25C44.544 14.2062 35.7938 5.45601 25 5.45601C14.2062 5.45601 5.45601 14.2062 5.45601 25Z" fill="#FBFBFB"/>
</svg>
