<svg width="16" height="16" viewBox="0 0 16 16" fill="none" xmlns="http://www.w3.org/2000/svg">
<g clip-path="url(#clip0_180_1150)">
<path d="M14.0599 -0.0157537C13.6273 -0.0236097 12.6226 0.156678 10.9451 1.53522C10.0308 1.25466 9.05799 1.11621 8.08354 1.11621C7.01136 1.11621 5.92785 1.28338 4.91742 1.62372C2.50896 -0.393674 1.44589 0.0197503 1.44589 0.0197503C0.751872 2.15068 1.18074 3.72836 1.31109 4.12018C0.495379 5.20111 -0.00259399 6.58141 -0.00259399 8.27313C-0.00259399 9.55028 0.115794 10.6958 0.405034 11.6916C0.421075 11.7684 0.415876 11.7513 0.442903 11.8171C0.506625 12.0232 0.577476 12.2233 0.657109 12.4166C0.684396 12.4861 0.709234 12.5376 0.709234 12.5376C1.52231 14.3985 3.12516 15.6006 5.97701 15.978L10.2903 15.984C13.3316 15.6137 14.791 14.408 15.4636 12.5346L15.5063 12.4126C15.57 12.2233 15.6256 12.0264 15.7775 11.3636C15.9295 10.7007 15.9974 9.55282 15.9974 8.27261C15.9974 6.43653 15.4358 4.96738 14.5237 3.84967C14.6831 3.21799 14.896 1.81514 14.3111 0.0192383C14.3111 0.0192383 14.2291 -0.0126817 14.0599 -0.0157697L14.0599 -0.0157537ZM10.6608 6.72213C11.3631 6.72026 11.9647 6.86831 12.4163 7.45012V7.45061C12.9815 8.17927 13.3122 9.05901 13.3122 10.0071C13.3122 14.4336 10.9936 14.554 8.13363 14.554C5.27321 14.554 2.95504 13.9406 2.95504 10.0071C2.95504 9.06529 3.28094 8.19081 3.83911 7.46511C4.7702 6.25567 6.34585 6.89612 8.13364 6.89612C9.05133 6.89594 9.91323 6.72412 10.6608 6.72212L10.6608 6.72213ZM5.33358 8.02562C4.7385 8.02562 4.25607 9.01348 4.25607 10.2326C4.25607 11.4519 4.73847 12.4401 5.33358 12.4401C5.92866 12.4401 6.41109 11.4519 6.41109 10.2326C6.41109 9.01365 5.92869 8.0265 5.33358 8.02562ZM11.1148 8.02562C10.5198 8.02562 10.0373 9.01348 10.0373 10.2326C10.0373 11.4519 10.5197 12.4401 11.1148 12.4401C11.7099 12.4401 12.1924 11.4519 12.1924 10.2326C12.1924 9.01365 11.71 8.0265 11.1148 8.02562Z" fill="#EBEBEB"/>
</g>
<defs>
<clipPath id="clip0_180_1150">
<rect width="16" height="16" fill="white"/>
</clipPath>
</defs>
</svg>
