<svg width="18" height="16" viewBox="0 0 18 16" fill="none" xmlns="http://www.w3.org/2000/svg">
<g clip-path="url(#clip0_180_1148)">
<path d="M3.52917 0.00402832C1.59027 0.00402832 0.00338745 1.41456 0.00338745 3.13806V12.8635C0.00338745 14.587 1.59023 15.997 3.52917 15.997H14.4703C16.4092 15.997 17.9955 14.587 17.9955 12.8635V3.13806C17.9955 1.41459 16.4092 0.00402832 14.4703 0.00402832H3.52917ZM4.41596 2.6432C5.34563 2.6432 5.91826 3.18569 5.93594 3.8988C5.93594 4.59616 5.34559 5.1539 4.39798 5.1539H4.38054C3.46857 5.1539 2.87912 4.59619 2.87912 3.8988C2.87912 3.18571 3.48641 2.6432 4.41594 2.6432H4.41596ZM12.4274 5.97616C14.2153 5.97616 15.5556 7.01491 15.5556 9.24713V13.4143H12.8385V9.52652C12.8385 8.54956 12.4452 7.88304 11.4619 7.88304C10.7112 7.88304 10.2638 8.33228 10.0673 8.76627C9.99557 8.92153 9.97793 9.13838 9.97793 9.35558V13.4143H7.26077C7.26077 13.4143 7.29643 6.82851 7.26077 6.14659H9.97848V7.17577C10.3396 6.68057 10.9854 5.97614 12.4274 5.97614V5.97616ZM3.03939 6.14712H5.75655V13.4143H3.03939V6.14712Z" fill="#EBEBEB"/>
</g>
<defs>
<clipPath id="clip0_180_1148">
<rect width="18" height="16" fill="white"/>
</clipPath>
</defs>
</svg>
